<?xml version="1.0" encoding="UTF-8" standalone="no"?>
<!DOCTYPE svg PUBLIC "-//W3C//DTD SVG 1.1//EN" "http://www.w3.org/Graphics/SVG/1.1/DTD/svg11.dtd">
<svg width="100%" height="100%" viewBox="0 0 150 150" version="1.1" xmlns="http://www.w3.org/2000/svg" xmlns:xlink="http://www.w3.org/1999/xlink" xml:space="preserve" xmlns:serif="http://www.serif.com/" style="fill-rule:evenodd;clip-rule:evenodd;stroke-linejoin:round;stroke-miterlimit:2;">
    <g transform="matrix(3.44438,0,0,3.44438,12.5017,12.2938)">
        <g id="Layer_2">
            <g id="Layer_1-2">
                <path d="M18.16,0C20.74,0.05 23.31,0.08 25.89,0.17C27.815,0.18 29.705,0.683 31.38,1.63C33.87,3.05 35.556,5.558 35.93,8.4C36.167,10.019 36.284,11.654 36.28,13.29L36.28,24.21C36.328,25.962 36.112,27.712 35.64,29.4C34.656,32.941 31.642,35.568 28,36.06C26.513,36.307 25.007,36.424 23.5,36.41C19.16,36.41 14.82,36.41 10.5,36.32C8.408,36.341 6.355,35.754 4.59,34.63C2.291,33.185 0.747,30.791 0.38,28.1C0.138,26.481 0.011,24.847 0,23.21L0,12.29C-0.04,10.564 0.179,8.841 0.65,7.18C1.613,3.596 4.652,0.929 8.33,0.44C9.986,0.205 11.657,0.084 13.33,0.08C14.94,0.02 16.55,0.08 18.16,0.08L18.16,0M33.16,18.25L33,18.25L33,13.62C32.982,12.038 32.868,10.458 32.66,8.89C32.407,6.666 30.912,4.768 28.81,4C27.661,3.579 26.444,3.372 25.22,3.39C21.29,3.39 17.35,3.3 13.41,3.32C11.874,3.315 10.34,3.425 8.82,3.65C6.607,3.945 4.74,5.463 4,7.57C3.579,8.719 3.372,9.936 3.39,11.16C3.39,15.11 3.3,19.05 3.32,23C3.314,24.539 3.425,26.077 3.65,27.6C3.937,29.83 5.454,31.719 7.57,32.48C8.709,32.888 9.911,33.091 11.12,33.08C14.51,33.08 17.91,33.16 21.3,33.16C23.02,33.16 24.74,33.1 26.46,32.99C27.799,32.938 29.095,32.508 30.2,31.75C31.884,30.528 32.885,28.571 32.89,26.49C33.04,23.75 33.07,21 33.15,18.25" style="fill:rgb(226,40,40);fill-rule:nonzero;"/>
                <path d="M27.48,18.25C27.469,23.361 23.261,27.56 18.15,27.56C13.032,27.56 8.82,23.348 8.82,18.23C8.82,13.112 13.032,8.9 18.15,8.9C18.153,8.9 18.157,8.9 18.16,8.9C23.273,8.9 27.48,13.107 27.48,18.22C27.48,18.23 27.48,18.24 27.48,18.25M24.22,18.25C24.22,14.92 21.48,12.18 18.15,12.18C14.82,12.18 12.08,14.92 12.08,18.25C12.08,21.58 14.82,24.32 18.15,24.32C21.472,24.298 24.198,21.572 24.22,18.25" style="fill:rgb(226,40,40);fill-rule:nonzero;"/>
                <path d="M27.87,6.34C29.071,6.34 30.06,7.329 30.06,8.53C30.06,9.731 29.071,10.72 27.87,10.72C26.668,10.72 25.68,9.731 25.68,8.53C25.68,8.52 25.68,8.51 25.68,8.5C25.712,7.316 26.686,6.356 27.87,6.34" style="fill:rgb(226,40,40);fill-rule:nonzero;"/>
            </g>
        </g>
    </g>
</svg>
