<?xml version="1.0" encoding="UTF-8" standalone="no"?>
<!DOCTYPE svg PUBLIC "-//W3C//DTD SVG 1.1//EN" "http://www.w3.org/Graphics/SVG/1.1/DTD/svg11.dtd">
<svg width="100%" height="100%" viewBox="0 0 150 150" version="1.1" xmlns="http://www.w3.org/2000/svg" xmlns:xlink="http://www.w3.org/1999/xlink" xml:space="preserve" xmlns:serif="http://www.serif.com/" style="fill-rule:evenodd;clip-rule:evenodd;stroke-linejoin:round;stroke-miterlimit:2;">
    <g transform="matrix(2.92946,0,0,2.92946,12.5,12.607)">
        <g id="Layer_2">
            <g id="Layer_1-2">
                <path d="M42.67,4.67L42.67,37.94C42.637,38.001 42.611,38.064 42.59,38.13C42.283,40.091 40.89,41.716 39,42.32C38.67,42.44 38.32,42.51 38,42.6L4.67,42.6C4.614,42.568 4.553,42.545 4.49,42.53C2.54,42.234 0.911,40.869 0.28,39C0.16,38.67 0.1,38.31 0,38L0,4.67C0,4.67 0.06,4.61 0.07,4.57C0.493,1.865 2.905,-0.114 5.64,0L37.37,0C39.627,0.004 41.645,1.452 42.37,3.59C42.49,3.93 42.57,4.3 42.67,4.65M8.19,29.78L8.39,29.9C10.812,31.369 13.591,32.146 16.424,32.146C24.792,32.146 31.724,25.366 31.91,17C31.815,16.276 32.157,15.561 32.78,15.18C33.01,15.025 33.213,14.832 33.38,14.61C33.79,14.15 34.19,13.61 34.63,13.14L31.71,14L31.65,13.9C32.716,13.215 33.514,12.184 33.91,10.98L33.48,11.19C32.6,11.53 31.72,11.863 30.84,12.19C30.607,12.285 30.338,12.216 30.18,12.02C29.168,11.069 27.83,10.538 26.44,10.538C23.445,10.538 20.98,13.003 20.98,15.998C20.98,16.152 20.987,16.306 21,16.46C21,16.69 21.05,16.92 21.09,17.2C16.701,16.955 12.612,14.874 9.83,11.47C8.449,13.936 9.141,17.081 11.43,18.74L11.36,18.85L9.08,18.2C9.085,19.417 9.501,20.598 10.26,21.55C11.015,22.516 12.071,23.203 13.26,23.5L13.26,23.63L11,23.63C11.743,25.83 13.779,27.351 16.1,27.44C13.847,29.162 11.037,29.995 8.21,29.78" style="fill:rgb(226,40,40);fill-rule:nonzero;"/>
            </g>
        </g>
    </g>
</svg>
