<?xml version="1.0" encoding="UTF-8" standalone="no"?>
<!DOCTYPE svg PUBLIC "-//W3C//DTD SVG 1.1//EN" "http://www.w3.org/Graphics/SVG/1.1/DTD/svg11.dtd">
<svg width="100%" height="100%" viewBox="0 0 531 74" version="1.1" xmlns="http://www.w3.org/2000/svg" xmlns:xlink="http://www.w3.org/1999/xlink" xml:space="preserve" xmlns:serif="http://www.serif.com/" style="fill-rule:evenodd;clip-rule:evenodd;stroke-linejoin:round;stroke-miterlimit:2;">
    <g id="Artboard1" transform="matrix(0.986973,0,0,0.916987,-64.7408,-60.7728)">
        <rect x="65.595" y="66.274" width="537.926" height="79.807" style="fill:none;"/>
        <g id="Layer-1" serif:id="Layer 1" transform="matrix(1.0132,0,0,1.09053,-6.93043,-11.5497)">
            <g transform="matrix(1,0,0,1,447.568,83.9759)">
                <path d="M0,48.048C0.417,47.022 0.863,45.927 1.326,44.793C13.604,14.709 18.582,-0.906 13.666,-8.279C11.996,-10.785 9.268,-12.234 6.181,-12.257L6.081,-12.257C-5.447,-12.257 -13.193,2.293 -21.39,17.694C-24.908,24.305 -30.147,34.148 -34.52,39.003C-33.846,35.305 -32.738,30.67 -31.886,27.104C-27.74,9.753 -25.569,-1.226 -30.37,-7.359C-32.251,-9.762 -35.032,-11.098 -38.198,-11.124L-38.267,-11.124C-47.015,-11.124 -55.59,2.007 -74.87,44.878C-75.38,46.011 -75.843,47.043 -76.255,47.952C-76.379,47.956 -76.515,47.959 -76.663,47.959L-254.719,47.959L-254.719,47.963L-288.775,47.963C-283.31,41.59 -279.993,33.302 -279.993,24.243C-279.993,4.196 -296.201,-12.115 -316.123,-12.115C-336.045,-12.115 -352.253,4.196 -352.253,24.243C-352.253,33.302 -348.936,41.59 -343.47,47.963L-375.223,47.963L-375.223,60.22L-326.495,60.22L-326.495,45.909C-334.473,42.009 -339.996,33.777 -339.996,24.243C-339.996,10.955 -329.287,0.142 -316.123,0.142C-302.959,0.142 -292.249,10.955 -292.249,24.243C-292.249,33.777 -297.773,42.009 -305.751,45.909L-305.751,60.22L-254.079,60.22L-254.079,60.216L-76.663,60.216C-71.184,60.216 -67.585,58.439 -65.967,54.932C-65.375,53.649 -64.605,51.936 -63.691,49.905C-50.919,21.503 -43.822,8.953 -39.881,3.813C-40.243,9.336 -42.465,18.638 -43.808,24.257C-47.359,39.123 -48.909,46.475 -45.342,51.11C-43.865,53.029 -41.708,54.119 -39.267,54.181C-27.093,54.416 -19.063,39.41 -10.57,23.452C-7.068,16.874 -1.15,5.753 3.205,1.616C1.848,11.076 -6.862,32.419 -10.022,40.162C-12.034,45.09 -13.487,48.652 -14.178,50.806C-14.885,53.011 -14.494,55.445 -13.129,57.317C-11.764,59.188 -9.566,60.305 -7.25,60.305L154.429,60.305L154.429,48.048L0,48.048Z" style="fill:rgb(254,230,54);fill-rule:nonzero;"/>
            </g>
            <g transform="matrix(1,0,0,1,480.434,98.6408)">
                <path d="M0,12.389L6.839,12.389L3.485,-0.71L0,12.389ZM-21.485,28.777L-5.806,-16.388L12.711,-16.388L28.389,28.777L11.227,28.777L9.614,23.099L-2.709,23.099L-4.452,28.777L-21.485,28.777Z" style="fill:rgb(228,40,40);fill-rule:nonzero;"/>
            </g>
            <g transform="matrix(1,0,0,1,529.619,107.287)">
                <path d="M0,-4.903C2.693,-4.903 4.17,-6.065 4.431,-8.387C4.517,-9.161 4.387,-9.935 4.04,-10.711C3.389,-11.872 2.281,-12.559 0.717,-12.775C0.63,-12.775 0.521,-12.796 0.392,-12.839L-2.214,-12.839L-2.214,-4.903L0,-4.903ZM-2.214,20.131L-18.409,20.131L-18.409,-25.034L3.786,-25.034C4.215,-24.99 4.538,-24.969 4.754,-24.969C9.271,-24.495 12.948,-22.969 15.787,-20.389C18.797,-17.634 20.303,-14.065 20.303,-9.677C20.303,-3.742 17.873,0.172 13.012,2.065C12.797,2.151 12.496,2.28 12.109,2.452L23.788,20.131L5.077,20.131L-2.214,4.968L-2.214,20.131Z" style="fill:rgb(228,40,40);fill-rule:nonzero;"/>
            </g>
            <g transform="matrix(1,0,0,1,553.084,112.705)">
                <path d="M0,-15.741L0,-30.453L34.324,-30.453L34.324,-15.741L25.163,-15.741L25.163,14.712L8.968,14.712L8.968,-15.741L0,-15.741Z" style="fill:rgb(228,40,40);fill-rule:nonzero;"/>
            </g>
            <g transform="matrix(1,0,0,1,188.53,100.186)">
                <path d="M0,9.297L-2,27.231L-17.162,27.231L-9.741,-17.934L6.391,-17.934L12.831,3.873L19.311,-17.934L35.428,-17.934L42.842,27.231L27.615,27.231L25.035,3.165L17.807,27.231L7.872,27.231L0.581,3.297L0,9.297Z" style="fill:rgb(7,187,230);fill-rule:nonzero;"/>
            </g>
            <g transform="matrix(1,0,0,1,234.275,82.2525)">
                <path d="M0,45.165L0,0L30.131,0L30.131,12.196L16.195,12.196L16.195,16.453L28.776,16.453L28.776,28.26L16.195,28.26L16.195,32.519L30.454,32.519L30.454,45.165L0,45.165Z" style="fill:rgb(7,187,230);fill-rule:nonzero;"/>
            </g>
            <g transform="matrix(1,0,0,1,315.118,116.901)">
                <path d="M0,-24.131L-15.033,-18.454L-15.227,-18.712L-15.484,-19.099C-16.818,-21.12 -18.775,-22.131 -21.356,-22.131C-24.367,-22.131 -26.711,-20.882 -28.389,-18.388C-29.895,-16.108 -30.54,-13.421 -30.325,-10.324C-30.153,-7.914 -29.444,-5.871 -28.195,-4.194C-26.776,-2.388 -24.905,-1.397 -22.582,-1.226C-20.991,-1.096 -19.497,-1.397 -18.098,-2.13C-16.701,-2.86 -15.83,-3.957 -15.484,-5.42L-22.711,-5.42L-22.711,-16.259L2.194,-16.259C2.279,-15.57 2.323,-14.969 2.323,-14.453C2.494,-6.839 0.473,-0.623 -3.742,4.194C-8.087,9.184 -14.023,11.678 -21.55,11.678C-23.356,11.678 -25.25,11.506 -27.228,11.161C-33.121,10.13 -37.864,7.571 -41.455,3.484C-45.046,-0.602 -46.842,-5.613 -46.842,-11.55C-46.842,-13.485 -46.648,-15.399 -46.261,-17.291C-45.315,-21.85 -43.164,-25.786 -39.809,-29.098C-35.25,-33.572 -29.379,-35.809 -22.195,-35.809C-11.657,-35.809 -4.258,-31.915 0,-24.131" style="fill:rgb(7,187,230);fill-rule:nonzero;"/>
            </g>
            <g transform="matrix(1,0,0,1,337.764,98.6408)">
                <path d="M0,12.389L6.839,12.389L3.484,-0.71L0,12.389ZM-21.485,28.777L-5.807,-16.388L12.711,-16.388L28.389,28.777L11.227,28.777L9.613,23.099L-2.71,23.099L-4.452,28.777L-21.485,28.777Z" style="fill:rgb(7,187,230);fill-rule:nonzero;"/>
            </g>
        </g>
    </g>
</svg>
